<?xml version="1.0" encoding="iso-8859-1"?>
<!-- Uploaded to: SVG Repo, www.svgrepo.com, Generator: SVG Repo Mixer Tools -->
<svg fill="#000000" height="800px" width="800px" version="1.1" id="Layer_1" xmlns="http://www.w3.org/2000/svg" xmlns:xlink="http://www.w3.org/1999/xlink" 
	 viewBox="0 0 512 512" xml:space="preserve">
<g>
	<g>
		<path d="M503.011,132.427c-12.504-3.44-13.125-4.057-16.571-16.513c-1.464-5.279-6.317-8.966-11.801-8.966
			c-5.488,0-10.34,3.689-11.802,8.968c-3.449,12.452-4.068,13.07-16.572,16.51c-5.296,1.459-8.995,6.307-8.995,11.791
			c0,5.48,3.697,10.329,8.996,11.791c12.503,3.44,13.123,4.057,16.571,16.509c1.463,5.281,6.316,8.968,11.802,8.968
			c5.483,0,10.335-3.686,11.802-8.97c3.446-12.452,4.066-13.069,16.577-16.51c5.288-1.461,8.982-6.308,8.982-11.789
			C512,138.735,508.305,133.887,503.011,132.427z M474.622,158.497c-3.107-7.191-7.102-11.18-14.303-14.28
			c7.201-3.099,11.196-7.09,14.303-14.281c3.087,7.261,7.013,11.196,14.26,14.282C481.634,147.303,477.707,151.239,474.622,158.497z
			"/>
	</g>
</g>
<g>
	<g>
		<path d="M65.742,50.285c-12.503-3.44-13.123-4.056-16.572-16.511c-1.464-5.279-6.316-8.966-11.8-8.966
			c-5.485,0-10.339,3.687-11.803,8.968C22.119,46.227,21.5,46.844,8.994,50.285C3.699,51.744,0,56.593,0,62.076
			c0,5.479,3.697,10.327,8.996,11.79c12.503,3.441,13.123,4.058,16.571,16.515c1.465,5.279,6.318,8.965,11.802,8.965
			c5.484,0,10.335-3.686,11.802-8.969c3.448-12.453,4.069-13.071,16.578-16.513c5.288-1.461,8.981-6.308,8.981-11.787
			C74.73,56.592,71.035,51.743,65.742,50.285z M37.353,76.358c-3.108-7.193-7.102-11.182-14.304-14.283
			c7.202-3.099,11.197-7.089,14.304-14.281c3.088,7.262,7.012,11.197,14.26,14.282C44.364,65.162,40.44,69.097,37.353,76.358z"/>
	</g>
</g>
<g>
	<g>
		<path d="M204.274,136.375c-11.081-3.049-11.489-3.456-14.544-14.491c-1.416-5.102-6.107-8.666-11.408-8.666
			c-5.302,0-9.993,3.564-11.41,8.669c-3.054,11.03-3.462,11.436-14.539,14.487c-5.122,1.409-8.7,6.097-8.7,11.401
			c0,5.302,3.576,9.989,8.698,11.4c11.079,3.05,11.487,3.455,14.542,14.491c1.416,5.104,6.109,8.67,11.409,8.67
			c5.301,0,9.992-3.565,11.409-8.673c3.054-11.032,3.463-11.437,14.548-14.487c5.114-1.411,8.685-6.098,8.685-11.399
			C212.965,142.472,209.392,137.783,204.274,136.375z M178.322,159.004c-2.576-5.362-5.868-8.656-11.231-11.229
			c5.362-2.574,8.655-5.866,11.231-11.229c2.576,5.362,5.868,8.655,11.229,11.229C184.189,150.348,180.897,153.641,178.322,159.004z
			"/>
	</g>
</g>
<g>
	<g>
		<path d="M242.915,278.287c-11.473,0-20.807,9.369-20.807,20.883c-0.001,8.732,5.373,16.219,12.97,19.333v20.483
			c0,4.328,3.509,7.837,7.837,7.837c4.328,0,7.837-3.509,7.837-7.837v-20.483c7.597-3.114,12.971-10.6,12.971-19.333
			C263.723,287.654,254.388,278.287,242.915,278.287z M242.915,304.379c-2.831,0-5.134-2.336-5.134-5.209
			c-0.001-2.872,2.303-5.21,5.134-5.21s5.135,2.337,5.135,5.21C248.049,302.042,245.745,304.379,242.915,304.379z"/>
	</g>
</g>
<g>
	<g>
		<path d="M463.669,207.941l-26.24-40.374c-2.922-4.49-7.83-7.183-13.152-7.229v-59.851c0-7.203-5.859-13.061-13.061-13.061H302.759
			V75.898c0-7.202-5.859-13.061-13.061-13.061H196.13c-7.203,0-13.061,5.859-13.061,13.061v11.528H74.614
			c-7.202,0-13.061,5.859-13.061,13.061v95.91l-19.62,19.62c-3.429,3.427-4.872,8.317-3.861,13.081l5.661,26.686
			c-4.588,2.028-7.801,6.616-7.801,11.946v180.672c0,7.202,5.859,13.061,13.061,13.061h7.271v12.667
			c0,7.202,5.859,13.061,13.061,13.061h36.114c7.202,0,13.061-5.859,13.061-13.061v-12.667h248.831v12.667
			c0,7.202,5.859,13.061,13.061,13.061h36.112c7.202,0,13.061-5.859,13.061-13.061v-12.667h7.271
			c7.203,0,13.061-5.859,13.061-13.061V267.731c0-6.203-4.35-11.399-10.157-12.725l22.92-28.148
			C467.085,221.422,467.49,213.82,463.669,207.941z M413.943,176.008l-11.301,17.384l-11.299-17.384H413.943z M326.316,225.089
			h13.094l9.59,29.58h-9.891C340.496,243.508,335.873,232.025,326.316,225.089z M204.29,373.449h77.249
			c7.203,0,13.061-5.859,13.061-13.061V300.97h109.173v114.191H82.056V300.97h109.172v59.417
			C191.229,367.59,197.088,373.449,204.29,373.449z M278.926,270.343v87.433h-72.025v-87.433H278.926z M223.963,203.46l-5.024-5.028
			h12.489l10.569,10.576c-1.403,1.218-2.705,2.554-3.879,4.005C234.379,208.621,229.48,205.294,223.963,203.46z M247.021,229.973
			c1.417-7.541,7.971-13.014,15.583-13.014c0.986,0,1.984,0.094,2.965,0.28c8.614,1.633,14.296,10.01,12.666,18.674
			c-1.416,7.539-7.968,13.011-15.577,13.011c-0.987,0-1.986-0.094-2.972-0.282C251.073,247.01,245.391,238.636,247.021,229.973z
			 M277.265,204.906l6.994-7c0.016-0.016,0.028-0.032,0.043-0.048h12.494l-12.292,12.302
			C282.372,208.092,279.943,206.316,277.265,204.906z M283.889,182.185v-0.001l-18.265-18.279v-12.498l30.754,30.779H283.889z
			 M269.772,190.23l-11.335,11.342c-0.498,0.066-0.993,0.141-1.484,0.231l-11.564-11.573l12.191-12.201L269.772,190.23z
			 M249.951,163.495c-0.022,0.022-0.046,0.04-0.068,0.062l-18.971,18.987c-0.069,0.069-0.127,0.145-0.194,0.215h-12.511
			l31.744-31.77V163.495z M229.677,230.362c1.733,8.642-3.848,17.087-12.441,18.824c-1.043,0.211-2.103,0.318-3.154,0.318
			c-7.52,0-14.059-5.394-15.548-12.827c-1.734-8.642,3.847-17.086,12.443-18.823c1.044-0.211,2.104-0.318,3.155-0.318
			C221.649,217.536,228.187,222.93,229.677,230.362z M294.458,242.055c2.941-4.587,7.943-7.326,13.379-7.326
			c3.03,0,5.99,0.877,8.56,2.537c5.904,3.813,8.441,10.916,6.794,17.404h-30.74C291.388,250.512,291.966,245.944,294.458,242.055z
			 M307.782,209.415l17.506-26.933l16.439,25.291l-1.067,1.643H307.782z M339.774,176.008h22.598l-11.3,17.385L339.774,176.008z
			 M376.858,182.48l16.438,25.292l-1.069,1.645h-30.74l-1.069-1.644L376.858,182.48z M198.743,78.511h88.343v8.916h-88.343V78.511z
			 M77.224,103.1h0.002h331.378v57.234h-79.028c-5.377,0-10.346,2.705-13.29,7.236l-4.868,7.49l-43.989-44.023
			c-2.629-2.633-6.126-4.083-9.848-4.083c-3.723,0-7.221,1.449-9.851,4.081l-49.307,49.348c-2.627,2.631-4.073,6.127-4.073,9.845
			c0,3.723,1.448,7.221,4.075,9.848l4.035,4.039c-9.037,3.596-15.772,11.138-18.535,20.165c-4.435-2.314-9.42-3.581-14.596-3.581
			c-2.328,0-4.63,0.257-6.872,0.76l-4.342-42.392c-0.644-6.275-5.223-11.37-11.396-12.678l-37.903-8.044
			c-0.98-0.207-1.982-0.312-2.982-0.312c-3.82,0-7.406,1.483-10.096,4.174l-18.515,18.514V103.1z M185.061,254.67h-31.408
			c-0.857-5.943,1.648-12.132,6.957-15.654c2.605-1.727,5.619-2.64,8.72-2.64c5.358,0,10.318,2.678,13.27,7.162
			C184.845,246.948,185.61,250.912,185.061,254.67z M131.358,243.285l5.811,11.384h-8.222L97.402,238.57l20.89-20.89l4.208,8.244
			c1.385,2.715,4.135,4.276,6.986,4.276c1.198,0,2.416-0.276,3.556-0.858c3.855-1.968,5.385-6.687,3.418-10.542l-6.517-12.77
			l13.771-13.771l3.816,37.255c-1.44,1.383-2.725,2.883-3.855,4.477c-2.343-2.181-5.883-2.789-8.898-1.25
			C130.92,234.709,129.391,239.43,131.358,243.285z M88.796,225.011l-4.292-20.227l20.227,4.29L88.796,225.011z M94.468,254.67
			H81.304l4.448-4.448L94.468,254.67z M90.156,189.96l8.87-8.87l2.389,11.259L90.156,189.96z M113.85,175.439l20.226,4.291
			l-15.936,15.936L113.85,175.439z M69.681,210.436l2.389,11.258l-11.259-2.389L69.681,210.436z M75.387,238.42l-15.935,15.936
			l-4.291-20.225L75.387,238.42z M102.827,471.52h-0.001H71.938v-10.055h30.889V471.52z M413.891,471.52h-30.887v-10.055h30.887
			V471.52z M434.224,445.791H51.605V270.343h139.623v14.954H79.444c-7.202,0-13.061,5.859-13.061,13.061v119.415
			c0,7.202,5.859,13.061,13.061,13.061h326.942c7.202,0,13.061-5.859,13.061-13.061V298.358c0-7.203-5.859-13.061-13.061-13.061
			H294.6v-14.954h139.624V445.791z M419.803,254.67h-54.325l-9.59-29.58h41.941l-4.354,13.429c-1.334,4.117,0.922,8.537,5.037,9.871
			c0.802,0.26,1.619,0.385,2.419,0.385c3.305,0,6.378-2.108,7.453-5.422l5.921-18.263h29.582L419.803,254.67z M413.059,209.415
			l-1.068-1.644l16.438-25.292l17.505,26.935H413.059z"/>
	</g>
</g>
<g style="opacity:0.1;enable-background:new    ;">
	<g>
		<path d="M85.682,474.132v-20.504h-21.58v20.504c0,2.873,2.351,5.224,5.224,5.224h21.58
			C88.033,479.356,85.682,477.005,85.682,474.132z"/>
	</g>
</g>
</svg>